<?xml version="1.0" encoding="UTF-8"?>
<svg id="_Слой_2" data-name="Слой 2" xmlns="http://www.w3.org/2000/svg" viewBox="0 0 111.09 111.1">
  <defs>
    <style>
      .cls-1 {
        fill: #ec3379;
      }

      .cls-2 {
        stroke-width: 2px;
      }

      .cls-2, .cls-3, .cls-4 {
        fill: none;
        stroke: #352892;
        stroke-linecap: round;
        stroke-miterlimit: 10;
      }

      .cls-5 {
        fill: #4630dd;
      }

      .cls-6 {
        fill: #352892;
      }

      .cls-3 {
        stroke-width: 4px;
      }

      .cls-4 {
        stroke-width: 6px;
      }

      .cls-7 {
        fill: #ad0042;
      }
    </style>
  </defs>
  <g id="OBJECTS">
    <g>
      <line class="cls-3" x1="7.14" y1="74.38" x2="23.51" y2="69.76"/>
      <line class="cls-3" x1="57.72" y1="106.83" x2="56.91" y2="90.46"/>
      <line class="cls-3" x1="106.79" y1="62.49" x2="89.95" y2="59.68"/>
      <line class="cls-3" x1="80.87" y1="12.4" x2="73.35" y2="25.59"/>
      <line class="cls-3" x1="25.43" y1="18.76" x2="31.88" y2="28.76"/>
      <circle class="cls-7" cx="55.56" cy="57.12" r="40.17"/>
      <g>
        <path class="cls-1" d="M82.65,40.12s.08-.06.12-.09c1.31-.94,1.62-2.76.66-4.05-2.65-3.57-5.95-6.63-9.72-9-1.52-.95-3.54-.24-4.16,1.44-.02.05-.04.11-.06.16-.48,1.28.03,2.7,1.19,3.44,3.11,1.97,5.83,4.5,8.02,7.45.93,1.25,2.7,1.58,3.96.65Z"/>
        <path class="cls-1" d="M23.3,47.23s.06.02.09.03c1.45.56,3.1-.13,3.7-1.57.5-1.18,1.07-2.32,1.71-3.42.84-1.44.31-3.3-1.18-4.05-.02,0-.04-.02-.05-.03-1.39-.7-3.07-.2-3.86,1.15-.75,1.29-1.43,2.64-2.02,4.02-.64,1.51.07,3.27,1.6,3.87Z"/>
        <path class="cls-1" d="M23.2,65.99c-.07.02-.14.04-.21.06-1.59.45-2.46,2.16-1.89,3.71,3.94,10.62,12.78,18.86,23.78,21.98,1.64.47,3.31-.62,3.58-2.3.01-.07.02-.14.03-.21.23-1.43-.69-2.76-2.08-3.16-9.17-2.62-16.53-9.51-19.81-18.37-.51-1.37-2-2.11-3.41-1.71Z"/>
        <path class="cls-1" d="M56.26,90.53s.02.09.04.14c.38,1.42,1.78,2.3,3.24,2.1.62-.08,1.24-.19,1.85-.3,1.51-.29,2.55-1.69,2.36-3.22v-.06c-.21-1.67-1.78-2.82-3.43-2.51-.54.1-1.09.19-1.64.27-1.71.23-2.86,1.91-2.42,3.58Z"/>
        <path class="cls-1" d="M86.27,50.38c-.22.11-.43.23-.65.35-.93.52-1.44,1.57-1.3,2.63,0,.02,0,.03,0,.05.21,1.59,1.74,2.62,3.3,2.23.15-.04.31-.08.46-.11,1.33-.3,2.26-1.54,2.08-2.89-.01-.1-.03-.2-.04-.3-.25-1.81-2.25-2.81-3.86-1.96Z"/>
      </g>
      <path class="cls-6" d="M19.4,23.03c-1.25-1.77.44-5.11,3.77-7.47s7.05-2.83,8.3-1.07c1.25,1.77-.44,5.11-3.77,7.47-3.33,2.36-7.05,2.83-8.3,1.07Z"/>
      <path class="cls-6" d="M105.63,69.79c-2.14-.34-3.35-3.88-2.71-7.91.64-4.03,2.9-7.02,5.04-6.68,2.14.34,3.35,3.88,2.71,7.91-.64,4.03-2.9,7.02-5.04,6.68Z"/>
      <path class="cls-6" d="M8.29,81.68c-2.14.34-4.39-2.66-5.02-6.69-.63-4.03.59-7.57,2.73-7.91,2.14-.34,4.39,2.66,5.02,6.69.63,4.03-.59,7.57-2.73,7.91Z"/>
      <path class="cls-6" d="M50.38,107.68c-.25-2.15,2.83-4.28,6.89-4.75,4.05-.47,7.54.89,7.79,3.04s-2.83,4.28-6.89,4.75-7.54-.89-7.79-3.04Z"/>
      <path class="cls-6" d="M74.74,8.27c1.21-1.8,4.94-1.4,8.32.88,3.38,2.28,5.15,5.59,3.94,7.38-1.21,1.8-4.94,1.4-8.32-.88-3.38-2.28-5.15-5.59-3.94-7.38Z"/>
      <line class="cls-4" x1="7.14" y1="47.03" x2="20.62" y2="50.6"/>
      <line class="cls-4" x1="55.56" y1="6.48" x2="55.56" y2="24.09"/>
      <line class="cls-4" x1="101.57" y1="30.66" x2="87.15" y2="43.59"/>
      <line class="cls-4" x1="25.43" y1="102.73" x2="38.28" y2="84.92"/>
      <line class="cls-4" x1="92.04" y1="95.83" x2="77.95" y2="79.76"/>
      <line class="cls-3" x1="34.5" y1="75.76" x2="44.63" y2="65.27"/>
      <line class="cls-3" x1="65.4" y1="84.41" x2="62.75" y2="72.07"/>
      <line class="cls-3" x1="76.65" y1="45.52" x2="70.04" y2="51.42"/>
      <line class="cls-3" x1="41.11" y1="31.44" x2="46.62" y2="39.42"/>
      <line class="cls-2" x1="65.27" y1="29.56" x2="64.16" y2="36.04"/>
      <line class="cls-2" x1="83.25" y1="65.27" x2="76.65" y2="63.09"/>
      <line class="cls-2" x1="63.53" y1="55.16" x2="56.91" y2="56.09"/>
      <line class="cls-2" x1="44.63" y1="49.26" x2="48.88" y2="53.67"/>
      <line class="cls-2" x1="27.34" y1="55.63" x2="34.1" y2="57.59"/>
      <line class="cls-2" x1="52.37" y1="68.59" x2="52.37" y2="60.78"/>
      <line class="cls-2" x1="49.13" y1="86.58" x2="52.37" y2="79.76"/>
      <path class="cls-5" d="M67.78,6.48c0,3.58-5.47,6.48-12.21,6.48s-12.21-2.9-12.21-6.48S48.82,0,55.56,0s12.21,2.9,12.21,6.48Z"/>
      <path class="cls-5" d="M100.96,88.05c2.28,2.76-.08,8.48-5.28,12.78s-11.26,5.55-13.54,2.79c-2.28-2.76.08-8.48,5.28-12.78,5.2-4.3,11.26-5.55,13.54-2.79Z"/>
      <path class="cls-5" d="M10.67,35.34c3.43,1.03,4.63,7.11,2.68,13.57-1.95,6.46-6.31,10.85-9.74,9.82-3.43-1.03-4.63-7.11-2.68-13.57,1.95-6.46,6.31-10.85,9.74-9.82Z"/>
      <path class="cls-5" d="M36.27,109.48c-2.17,2.85-8.28,1.85-13.65-2.23-5.37-4.08-7.96-9.7-5.8-12.55,2.17-2.85,8.28-1.85,13.65,2.23,5.37,4.08,7.96,9.7,5.8,12.55Z"/>
      <path class="cls-5" d="M35.07,35.71c-1.97-2.78-.86-6.95,2.47-9.31,3.33-2.36,7.63-2.01,9.6.77,1.97,2.78.86,6.95-2.47,9.31-3.33,2.36-7.63,2.01-9.6-.77Z"/>
      <path class="cls-5" d="M72.38,39.48c2.78-1.97,6.95-.86,9.31,2.47,2.36,3.33,2.01,7.63-.77,9.6-2.78,1.97-6.95.86-9.31-2.47s-2.01-7.63.77-9.6Z"/>
      <path class="cls-5" d="M28,50.62c2.08.3,3.48,2.57,3.11,5.06-.36,2.49-2.35,4.27-4.43,3.96s-3.48-2.57-3.11-5.06c.36-2.49,2.35-4.27,4.43-3.96Z"/>
      <path class="cls-5" d="M84.72,60.95c1.99.68,2.95,3.16,2.14,5.54s-3.08,3.77-5.07,3.09c-1.99-.68-2.95-3.16-2.14-5.54.81-2.39,3.08-3.77,5.07-3.09Z"/>
      <path class="cls-5" d="M47.27,45.54c1.84,1.31,2.15,4.03.69,6.08s-4.13,2.66-5.97,1.35c-1.84-1.31-2.15-4.03-.69-6.08s4.13-2.66,5.97-1.35Z"/>
      <path class="cls-5" d="M63.56,50.6c2.26.01,4.07,2.07,4.05,4.59-.02,2.52-1.86,4.55-4.11,4.53-2.26-.01-4.07-2.07-4.05-4.59.02-2.52,1.86-4.55,4.11-4.53Z"/>
      <path class="cls-5" d="M56.85,67.78c.4,2.22-1.28,4.38-3.76,4.83-2.48.45-4.81-.98-5.22-3.2-.4-2.22,1.28-4.38,3.76-4.83s4.81.98,5.22,3.2Z"/>
      <path class="cls-5" d="M69.63,30.88c-.61,2.01-3.06,3.05-5.47,2.32s-3.87-2.96-3.26-4.97,3.06-3.05,5.47-2.32c2.41.73,3.87,2.96,3.26,4.97Z"/>
      <path class="cls-5" d="M53.5,87.91c-.61,2.01-3.06,3.05-5.47,2.32-2.41-.73-3.87-2.96-3.26-4.97.61-2.01,3.06-3.05,5.47-2.32,2.41.73,3.87,2.96,3.26,4.97Z"/>
      <path class="cls-5" d="M30.24,68.89c2.78-1.97,6.95-.86,9.31,2.47,2.36,3.33,2.01,7.63-.77,9.6-2.78,1.97-6.95.86-9.31-2.47-2.36-3.33-2.01-7.63.77-9.6Z"/>
      <path class="cls-5" d="M58.7,85.86c-1.11-3.22,1.11-6.91,4.97-8.25s7.89.2,9,3.42c1.11,3.22-1.11,6.91-4.97,8.25s-7.89-.2-9-3.42Z"/>
      <path class="cls-5" d="M109.8,39.68c-2.65,2.41-8.47.33-13.02-4.65-4.55-4.98-6.09-10.98-3.44-13.39s8.47-.33,13.02,4.65c4.55,4.98,6.09,10.98,3.44,13.39Z"/>
    </g>
  </g>
</svg>