<?xml version="1.0" encoding="UTF-8"?>
<svg id="_Слой_2" data-name="Слой 2" xmlns="http://www.w3.org/2000/svg" viewBox="0 0 71.16 102.19">
  <defs>
    <style>
      .cls-1 {
        stroke: #6fa847;
        stroke-width: 26px;
      }

      .cls-1, .cls-2, .cls-3 {
        fill: none;
        stroke-linecap: round;
        stroke-miterlimit: 10;
      }

      .cls-2 {
        stroke: #99e862;
        stroke-width: 18px;
      }

      .cls-3 {
        opacity: .5;
        stroke: #fff;
        stroke-width: 10px;
      }
    </style>
  </defs>
  <g id="OBJECTS">
    <g>
      <path class="cls-1" d="M38.82,13S3.49,21.95,15.49,59.01"/>
      <path class="cls-2" d="M14.78,56.68c.21.76.45,1.54.7,2.32"/>
      <path class="cls-2" d="M15.42,32.28c-.7,1.62-1.27,3.37-1.68,5.26"/>
      <path class="cls-2" d="M38.82,13s-2.19.55-5.29,1.96"/>
      <path class="cls-3" d="M35.32,7.23s-14.5,4.67-23.83,20.5"/>
      <path class="cls-3" d="M21.38,53.84s2.83,5.33-1.67,10.33"/>
      <g>
        <path class="cls-1" d="M32.34,89.19s35.33-8.95,23.33-46.01"/>
        <path class="cls-2" d="M56.38,45.5c-.21-.76-.45-1.54-.7-2.32"/>
        <path class="cls-2" d="M55.74,69.9c.7-1.62,1.27-3.37,1.68-5.26"/>
        <path class="cls-2" d="M32.34,89.19s2.19-.55,5.29-1.96"/>
        <path class="cls-3" d="M35.84,94.95s14.5-4.67,23.83-20.5"/>
        <path class="cls-3" d="M49.78,48.35s-2.83-5.33,1.67-10.33"/>
      </g>
    </g>
  </g>
</svg>