<?xml version="1.0" encoding="UTF-8"?>
<svg id="_Слой_2" data-name="Слой 2" xmlns="http://www.w3.org/2000/svg" viewBox="0 0 128.65 139.07">
  <defs>
    <style>
      .cls-1 {
        fill: #4630dd;
      }

      .cls-2 {
        fill: #352892;
      }

      .cls-3 {
        fill: #431fbf;
      }

      .cls-4 {
        fill: #fff;
        opacity: .1;
      }

      .cls-5 {
        fill: #2b1d87;
      }
    </style>
  </defs>
  <g id="OBJECTS">
    <g>
      <path class="cls-5" d="M77.71,57.96s1.69-1.52,4.4-3.53c1.35-1.02,2.98-2.13,4.72-3.31.89-.57,1.8-1.17,2.76-1.73.95-.58,1.94-1.11,2.92-1.67,1.98-1.09,3.95-2.19,5.91-3.06.99-.41,1.93-.84,2.86-1.2.92-.37,1.8-.7,2.63-.98,3.29-1.17,5.67-1.67,5.67-1.67.46-.1.91.2,1.01.66.05.23,0,.46-.12.65,0,0-1.35,2.03-3.65,4.64-.57.66-1.21,1.36-1.89,2.07-.67.73-1.42,1.45-2.17,2.22-1.54,1.49-3.29,2.92-5.04,4.35-.88.7-1.75,1.43-2.64,2.09-.87.69-1.77,1.31-2.63,1.92-1.75,1.18-3.38,2.28-4.83,3.16-2.87,1.78-4.91,2.78-4.91,2.78-2.23,1.09-4.93.17-6.02-2.06-.9-1.84-.43-4,1.02-5.32Z"/>
      <path class="cls-5" d="M87.84,76.43s2,.34,4.89,1.18c1.45.4,3.11.96,4.89,1.57.88.33,1.79.65,2.7,1.04.92.37,1.83.8,2.75,1.2,1.83.84,3.66,1.67,5.32,2.63,1.65.97,3.17,1.95,4.45,2.86,2.56,1.8,4.16,3.31,4.16,3.31.35.33.36.88.03,1.22-.15.16-.34.24-.54.27,0,0-2.19.23-5.32.09-1.57-.06-3.37-.21-5.27-.45-1.9-.25-3.86-.71-5.82-1.16-.98-.24-1.96-.45-2.91-.72-.96-.24-1.88-.55-2.78-.82-1.78-.6-3.43-1.18-4.83-1.74-2.8-1.1-4.59-2.04-4.59-2.04-2.2-1.16-3.05-3.89-1.89-6.1.93-1.77,2.89-2.66,4.76-2.34Z"/>
      <path class="cls-5" d="M76.24,96.15s1.28,1.92,2.9,4.94c.82,1.51,1.7,3.3,2.64,5.23.44.98.92,1.98,1.34,3.02.45,1.03.84,2.11,1.26,3.18.81,2.15,1.63,4.29,2.23,6.38.27,1.06.57,2.06.79,3.05.24.98.44,1.91.62,2.78.71,3.47.88,5.92.88,5.92.03.47-.32.87-.79.9-.24.02-.46-.07-.63-.22,0,0-1.83-1.65-4.11-4.36-.58-.67-1.18-1.41-1.8-2.2-.64-.78-1.24-1.64-1.9-2.51-1.27-1.76-2.44-3.73-3.63-5.7-.58-.99-1.18-1.97-1.71-2.96-.56-.98-1.05-1.97-1.55-2.92-.94-1.93-1.8-3.73-2.47-5.31-1.37-3.14-2.09-5.34-2.09-5.34-.77-2.36.53-4.9,2.89-5.67,1.96-.63,4.04.15,5.13,1.78Z"/>
      <path class="cls-5" d="M55.58,99.35s-.3,2.15-1.07,5.27c-.37,1.57-.89,3.37-1.46,5.29-.31.96-.61,1.95-.99,2.94-.35,1-.76,1.99-1.14,3-.8,2-1.59,4-2.52,5.82-.94,1.82-1.88,3.49-2.77,4.91-1.74,2.84-3.23,4.63-3.23,4.63-.3.36-.84.41-1.21.11-.18-.15-.28-.35-.3-.56,0,0-.28-2.32-.21-5.65.02-1.67.13-3.59.32-5.63.21-2.03.62-4.14,1.03-6.26.22-1.05.41-2.11.66-3.14.22-1.03.5-2.03.76-3,.56-1.93,1.1-3.72,1.64-5.24,1.04-3.05,1.94-5.01,1.94-5.01,1.04-2.26,3.72-3.24,5.98-2.2,1.84.85,2.84,2.8,2.57,4.71Z"/>
      <path class="cls-5" d="M41.34,89.48s-1.92,1.51-4.97,3.47c-1.52,1-3.33,2.08-5.28,3.24-.99.55-2,1.14-3.06,1.68-1.05.56-2.15,1.08-3.23,1.62-2.18,1.05-4.36,2.12-6.5,2.95-1.08.39-2.11.8-3.12,1.14-1,.35-1.96.66-2.85.93-3.56,1.1-6.11,1.54-6.11,1.54-.46.08-.89-.23-.97-.69-.04-.24.03-.49.17-.67,0,0,1.61-2.03,4.28-4.63.66-.66,1.4-1.35,2.18-2.06.78-.73,1.63-1.43,2.5-2.2,1.76-1.48,3.74-2.88,5.71-4.29,1-.69,1.98-1.41,2.97-2.06.98-.67,1.98-1.28,2.94-1.88,1.95-1.16,3.77-2.23,5.37-3.08,3.19-1.73,5.43-2.69,5.43-2.69,2.28-.98,4.92.08,5.9,2.36.82,1.91.21,4.08-1.36,5.3Z"/>
      <path class="cls-5" d="M32.38,68.4s-1.61-.35-3.89-1.2c-1.15-.41-2.45-.96-3.84-1.57-.68-.33-1.4-.65-2.1-1.04-.71-.36-1.41-.79-2.12-1.19-1.4-.84-2.81-1.66-4.05-2.61-1.24-.96-2.36-1.93-3.3-2.82-1.88-1.77-3-3.26-3-3.26-.3-.4-.22-.97.18-1.27.13-.1.29-.16.45-.18,0,0,1.85-.2,4.43-.03,1.29.07,2.77.24,4.31.49,1.54.26,3.1.73,4.67,1.19.78.24,1.57.46,2.32.73.76.25,1.49.55,2.19.83,1.39.6,2.69,1.18,3.77,1.74,2.17,1.09,3.53,2.03,3.53,2.03,2.06,1.42,2.58,4.25,1.16,6.32-1.08,1.56-2.97,2.24-4.71,1.86Z"/>
      <path class="cls-5" d="M45.22,50.3s-1.22-1.59-2.74-4.12c-.78-1.26-1.6-2.78-2.48-4.4-.41-.83-.86-1.67-1.25-2.56-.42-.88-.78-1.8-1.18-2.71-.75-1.83-1.52-3.66-2.07-5.47-.54-1.81-.97-3.54-1.28-5.05-.63-3.02-.76-5.19-.76-5.19-.03-.48.34-.89.82-.92.21-.01.41.05.57.17,0,0,1.75,1.3,3.92,3.49,1.1,1.09,2.3,2.4,3.52,3.84,1.21,1.45,2.31,3.09,3.43,4.73.54.83,1.11,1.64,1.62,2.47.53.82.99,1.65,1.46,2.45.88,1.63,1.69,3.15,2.32,4.49,1.28,2.67,1.94,4.56,1.94,4.56.82,2.35-.42,4.93-2.78,5.75-1.88.66-3.91-.02-5.07-1.52Z"/>
      <path class="cls-5" d="M65.34,40.71s0-1.89.33-4.67c.15-1.39.42-3,.71-4.72.17-.86.34-1.74.57-2.64.2-.9.47-1.79.71-2.7.52-1.8,1.02-3.61,1.68-5.27.67-1.66,1.38-3.19,2.06-4.49,1.33-2.61,2.55-4.29,2.55-4.29.28-.39.83-.48,1.23-.19.16.12.27.28.33.46,0,0,.6,1.99.99,4.89.21,1.45.37,3.13.46,4.92.07,1.78-.05,3.65-.15,5.53-.07.93-.11,1.87-.22,2.78-.08.92-.22,1.81-.34,2.67-.29,1.72-.58,3.33-.89,4.69-.6,2.73-1.23,4.52-1.23,4.52-.83,2.36-3.41,3.6-5.76,2.77-1.86-.65-3.02-2.4-3.03-4.27Z"/>
      <circle class="cls-2" cx="62.53" cy="75.21" r="47.5" transform="translate(-11.09 10.81) rotate(-9.08)"/>
      <g>
        <path class="cls-3" d="M105.55,77.9c.07,0,.13,0,.19,0,2.06.04,3.76-1.57,3.78-3.63.04-5.67-.98-11.31-3-16.63-.81-2.14-3.42-2.97-5.35-1.73-.06.04-.12.08-.19.12-1.47.94-2.04,2.78-1.43,4.41,1.65,4.39,2.48,9.06,2.45,13.74-.01,1.99,1.54,3.68,3.54,3.71Z"/>
        <path class="cls-3" d="M39.62,39.62s.04.07.06.1c1.05,1.68,3.26,2.24,4.97,1.24,1.41-.82,2.87-1.55,4.37-2.18,1.96-.83,2.85-3.12,1.91-5.03-.01-.02-.02-.05-.03-.07-.87-1.78-2.98-2.56-4.81-1.79-1.76.74-3.48,1.59-5.14,2.56-1.82,1.05-2.44,3.39-1.33,5.17Z"/>
        <path class="cls-3" d="M25.13,58.66c-.08-.03-.17-.07-.25-.1-1.97-.76-4.17.32-4.77,2.34-4.13,13.85-1.44,29.03,7.37,40.64,1.32,1.74,3.84,1.91,5.42.4.07-.06.13-.12.19-.19,1.32-1.28,1.42-3.35.31-4.82-7.33-9.7-9.55-22.37-6.1-33.92.54-1.79-.42-3.68-2.17-4.35Z"/>
        <path class="cls-3" d="M39.99,109.02c-.02.06-.05.11-.07.17-.7,1.74.05,3.71,1.69,4.63.7.39,1.4.76,2.11,1.11,1.76.87,3.89.23,4.88-1.47.01-.02.03-.04.04-.07,1.07-1.86.36-4.24-1.57-5.18-.63-.31-1.25-.64-1.87-.98-1.92-1.08-4.38-.24-5.21,1.79Z"/>
        <path class="cls-3" d="M101.37,91.13c-.31-.05-.62-.1-.93-.14-1.35-.18-2.67.5-3.34,1.68-.01.02-.02.04-.03.06-1.01,1.78-.23,4.01,1.65,4.8.19.08.37.16.56.24,1.59.72,3.48.17,4.34-1.35.06-.11.13-.23.19-.34,1.13-2.04-.13-4.58-2.43-4.96Z"/>
      </g>
      <path class="cls-1" d="M56.4,53.32s-.21-.8-.54-2.21c-.17-.7-.36-1.56-.56-2.54-.2-.98-.45-2.09-.68-3.3-.48-2.42-.95-5.27-1.45-8.31-.22-1.53-.47-3.1-.65-4.72-.21-1.61-.36-3.25-.54-4.89-.16-1.64-.34-3.28-.47-4.9-.16-1.62-.23-3.22-.32-4.77-.03-1.56-.11-3.06-.11-4.49-.02-1.43-.01-2.79,0-4.04.07-5.02.45-8.41.45-8.41.05-.45.45-.77.9-.72.29.03.53.22.65.47,0,0,1.44,3.1,3.1,7.84.42,1.18.85,2.47,1.29,3.83.46,1.36.86,2.8,1.32,4.29.4,1.5.84,3.04,1.21,4.63.39,1.58.74,3.19,1.11,4.8.35,1.61.73,3.22,1.04,4.81.34,1.59.61,3.16.88,4.68.5,3.05.95,5.89,1.26,8.34.17,1.22.28,2.35.41,3.35.12,1,.22,1.87.28,2.59.14,1.44.19,2.26.19,2.26.15,2.47-1.73,4.59-4.2,4.74-2.16.13-4.06-1.3-4.6-3.31Z"/>
      <path class="cls-1" d="M80.44,64.72s.73-.16,2.01-.38c.64-.12,1.42-.25,2.31-.38.89-.13,1.9-.3,3-.45,2.2-.31,4.78-.58,7.54-.87,1.38-.11,2.81-.25,4.27-.32,1.46-.1,2.94-.13,4.42-.2,1.49-.04,2.97-.11,4.43-.13,1.46-.04,2.91,0,4.31,0,1.4.07,2.76.1,4.05.2,1.29.08,2.51.18,3.64.29,4.51.42,7.55,1.03,7.55,1.03.45.09.73.52.64.97-.06.27-.25.49-.48.59,0,0-2.85,1.22-7.19,2.54-1.08.34-2.26.68-3.5,1.02-1.24.36-2.56.67-3.92,1.02-1.37.3-2.77.63-4.22.88-1.44.28-2.9.52-4.37.78-1.47.24-2.93.5-4.37.7-1.44.23-2.87.38-4.25.55-2.76.28-5.34.54-7.56.68-1.11.09-2.13.12-3.03.17-.9.05-1.69.09-2.34.1-1.3.04-2.04.04-2.04.04-2.48-.02-4.47-2.05-4.44-4.53.02-2.14,1.53-3.91,3.53-4.34Z"/>
      <path class="cls-1" d="M44.7,77.18s-2.72.5-6.82.92c-2.05.22-4.45.4-7.01.57-1.29.06-2.61.14-3.97.15-1.35.04-2.73.02-4.1.03-2.75-.02-5.51-.03-8.1-.22-1.3-.13-2.55-.21-3.74-.36-1.19-.13-2.32-.28-3.36-.43-4.17-.59-6.97-1.32-6.97-1.32-.44-.12-.71-.57-.59-1.01.07-.26.26-.46.49-.56,0,0,2.68-1.11,6.73-2.26,1.01-.29,2.11-.59,3.27-.88,1.16-.31,2.39-.56,3.66-.87,2.54-.55,5.27-.93,7.99-1.32,1.36-.18,2.73-.39,4.07-.53,1.34-.17,2.67-.27,3.95-.39,2.57-.18,4.97-.33,7.03-.39,4.12-.15,6.88-.02,6.88-.02,2.47.12,4.39,2.22,4.27,4.69-.1,2.12-1.66,3.83-3.66,4.2Z"/>
      <path class="cls-1" d="M66.95,91.34s-.01.76-.08,2.07c-.03.66-.08,1.46-.15,2.37-.08.91-.13,1.95-.25,3.07-.2,2.25-.51,4.86-.86,7.65-.2,1.39-.39,2.84-.66,4.29-.23,1.46-.53,2.94-.81,4.42-.29,1.48-.56,2.96-.88,4.41-.29,1.45-.65,2.88-.98,4.25-.39,1.37-.73,2.7-1.11,3.95-.37,1.25-.74,2.44-1.1,3.53-1.43,4.36-2.71,7.23-2.71,7.23-.19.41-.67.6-1.09.41-.26-.12-.43-.35-.47-.61,0,0-.54-3.1-.85-7.67-.08-1.15-.15-2.38-.2-3.69-.07-1.31-.07-2.68-.11-4.11.02-1.42.01-2.88.09-4.36.05-1.48.15-2.98.23-4.49.1-1.5.17-3.01.31-4.48.11-1.48.27-2.92.42-4.32.35-2.79.68-5.4,1.05-7.63.17-1.11.37-2.13.52-3.03.15-.9.3-1.69.44-2.33.25-1.29.43-2.03.43-2.03.57-2.41,2.99-3.9,5.4-3.32,2.08.5,3.47,2.37,3.44,4.43Z"/>
      <path class="cls-1" d="M80.8,82.43s2.18,1.46,5.24,3.9c1.54,1.21,3.27,2.69,5.12,4.28.91.82,1.86,1.65,2.78,2.54.94.87,1.85,1.81,2.78,2.73,1.84,1.86,3.69,3.7,5.3,5.58.79.96,1.57,1.86,2.27,2.76.71.89,1.37,1.75,1.96,2.56,2.39,3.21,3.77,5.61,3.77,5.61.23.4.09.91-.31,1.14-.23.13-.49.14-.72.05,0,0-2.58-1-6.11-2.88-.89-.47-1.83-.99-2.82-1.56-1-.55-2.01-1.2-3.07-1.83-2.1-1.31-4.2-2.86-6.31-4.4-1.04-.78-2.11-1.55-3.11-2.34-1.02-.78-1.99-1.59-2.93-2.37-1.85-1.59-3.58-3.09-5-4.42-2.88-2.65-4.64-4.59-4.64-4.59-1.67-1.83-1.54-4.67.29-6.34,1.56-1.42,3.84-1.54,5.52-.42Z"/>
      <path class="cls-1" d="M73.44,49.06s1.13-2.14,3.11-5.14c.97-1.51,2.18-3.23,3.49-5.06.67-.9,1.36-1.84,2.11-2.75.73-.93,1.52-1.84,2.28-2.77,1.56-1.83,3.11-3.67,4.72-5.28.83-.79,1.6-1.58,2.38-2.28.77-.72,1.51-1.38,2.22-1.98,2.8-2.42,4.94-3.84,4.94-3.84.39-.26.91-.15,1.17.24.14.21.17.45.11.68,0,0-.64,2.49-2.01,5.92-.34.86-.72,1.78-1.15,2.75-.41.97-.9,1.96-1.38,3-1,2.05-2.23,4.11-3.45,6.18-.63,1.03-1.23,2.07-1.87,3.06-.62,1.01-1.28,1.96-1.91,2.89-1.3,1.83-2.53,3.53-3.64,4.95-2.2,2.85-3.84,4.62-3.84,4.62-1.69,1.82-4.54,1.91-6.35.22-1.52-1.42-1.83-3.64-.91-5.39Z"/>
      <path class="cls-1" d="M42.39,61.79s-1.89-1.12-4.5-3.05c-1.32-.96-2.8-2.14-4.38-3.42-.77-.66-1.58-1.33-2.36-2.06-.8-.71-1.57-1.48-2.36-2.23-1.56-1.52-3.12-3.04-4.47-4.6-1.34-1.58-2.54-3.11-3.52-4.48-1.98-2.72-3.09-4.8-3.09-4.8-.22-.42-.06-.93.35-1.16.2-.11.43-.13.64-.07,0,0,2.27.64,5.34,2.01,1.55.67,3.3,1.52,5.12,2.5,1.82.99,3.62,2.2,5.44,3.4.9.61,1.81,1.21,2.67,1.84.88.61,1.7,1.26,2.51,1.88,1.58,1.28,3.05,2.48,4.26,3.56,2.44,2.15,3.93,3.76,3.93,3.76,1.69,1.83,1.58,4.68-.25,6.36-1.5,1.38-3.68,1.55-5.35.57Z"/>
      <path class="cls-1" d="M52.42,89.99s-1.35,1.94-3.62,4.63c-1.13,1.35-2.5,2.87-3.99,4.49-.76.79-1.54,1.62-2.37,2.42-.82.82-1.69,1.6-2.55,2.41-1.73,1.59-3.46,3.19-5.22,4.55-.9.66-1.74,1.33-2.59,1.92-.84.6-1.64,1.15-2.4,1.65-3.02,2-5.28,3.11-5.28,3.11-.42.21-.93.03-1.13-.39-.11-.22-.11-.46-.03-.67,0,0,.9-2.35,2.63-5.53.43-.8.91-1.65,1.43-2.54.51-.9,1.1-1.8,1.68-2.75,1.21-1.87,2.65-3.73,4.08-5.6.73-.92,1.43-1.86,2.18-2.75.72-.9,1.48-1.75,2.2-2.58,1.48-1.62,2.88-3.13,4.12-4.37,2.47-2.5,4.29-4.01,4.29-4.01,1.91-1.59,4.74-1.33,6.33.58,1.32,1.59,1.36,3.82.24,5.44Z"/>
      <path class="cls-4" d="M62.53,45.05c-16.66,0-30.16,13.5-30.16,30.16s13.5,30.16,30.16,30.16,30.16-13.5,30.16-30.16-13.5-30.16-30.16-30.16ZM62.53,91.45c-8.97,0-16.24-7.27-16.24-16.24s7.27-16.24,16.24-16.24,16.24,7.27,16.24,16.24-7.27,16.24-16.24,16.24Z"/>
    </g>
  </g>
</svg>