<?xml version="1.0" encoding="UTF-8"?>
<svg id="_Слой_2" data-name="Слой 2" xmlns="http://www.w3.org/2000/svg" viewBox="0 0 122.14 120.32">
  <defs>
    <style>
      .cls-1 {
        stroke: #f1669b;
      }

      .cls-1, .cls-2, .cls-3 {
        fill: none;
        stroke-linecap: round;
        stroke-miterlimit: 10;
        stroke-width: 7.84px;
      }

      .cls-2 {
        stroke: #910037;
      }

      .cls-3 {
        stroke: #e70058;
      }
    </style>
  </defs>
  <g id="OBJECTS">
    <g>
      <path class="cls-3" d="M8.92,88.51s14.13-18.28,43.11-22.46c28.98-4.18,54.84-9.8,66.2-27.17"/>
      <path class="cls-1" d="M87.36,58.86c9.31-2.87,17.4-6.63,23.62-11.88"/>
      <path class="cls-2" d="M18.36,79.76c7.12-5.32,18.31-11.49,33.67-13.71"/>
      <path class="cls-3" d="M59.72,3.92s20.92-.71,23.39,12.16c2.47,12.87-11.64,20.32-23.39,16.59-11.75-3.72-33.5-3.72-42.47,10.12-8.98,13.84,4.69,24.29,23.97,35.52,19.29,11.23,12.51,34.74-8.65,37.35s-28.65-2.61-28.65-2.61"/>
      <path class="cls-1" d="M41.22,78.32c19.29,11.23,12.51,34.74-8.65,37.35"/>
      <path class="cls-1" d="M83.11,16.09c2.47,12.87-11.64,20.32-23.39,16.59"/>
    </g>
  </g>
</svg>