<?xml version="1.0" encoding="UTF-8"?>
<svg id="_Слой_2" data-name="Слой 2" xmlns="http://www.w3.org/2000/svg" viewBox="0 0 114.19 110.84">
  <defs>
    <style>
      .cls-1 {
        stroke: #3e5f28;
      }

      .cls-1, .cls-2, .cls-3, .cls-4, .cls-5, .cls-6 {
        fill: none;
        stroke-miterlimit: 10;
      }

      .cls-1, .cls-2, .cls-3, .cls-4, .cls-6 {
        stroke-linecap: round;
      }

      .cls-1, .cls-2, .cls-5, .cls-6 {
        stroke-width: 6.08px;
      }

      .cls-7 {
        fill: #85c955;
      }

      .cls-8 {
        fill: #537e35;
      }

      .cls-9 {
        fill: #fff;
        opacity: .5;
      }

      .cls-2, .cls-3 {
        stroke: #99e862;
      }

      .cls-10 {
        fill: #6fa847;
      }

      .cls-3, .cls-4 {
        stroke-width: 7.6px;
      }

      .cls-11 {
        fill: #99e862;
      }

      .cls-4, .cls-6 {
        stroke: #85c955;
      }

      .cls-5 {
        stroke: #537e35;
      }

      .cls-12 {
        fill: #6aa144;
      }
    </style>
  </defs>
  <g id="OBJECTS">
    <g>
      <line class="cls-5" x1="7.93" y1="56.62" x2="33.08" y2="56.62"/>
      <line class="cls-5" x1="60.24" y1="102.9" x2="58.66" y2="83.4"/>
      <line class="cls-5" x1="106.26" y1="50.17" x2="87.55" y2="51.73"/>
      <line class="cls-5" x1="56" y1="6.95" x2="56" y2="32.59"/>
      <line class="cls-1" x1="19.9" y1="56.62" x2="33.08" y2="56.62"/>
      <line class="cls-1" x1="59.33" y1="91.62" x2="58.66" y2="83.4"/>
      <line class="cls-1" x1="94.38" y1="51.16" x2="87.55" y2="51.73"/>
      <line class="cls-1" x1="56" y1="18.36" x2="56" y2="32.59"/>
      <circle class="cls-10" cx="56" cy="54.45" r="36.1"/>
      <circle class="cls-7" cx="56" cy="54.45" r="22.92" transform="translate(-15.92 84.93) rotate(-67.16)"/>
      <g>
        <path class="cls-7" d="M88.7,56.5s.1,0,.15,0c1.56.03,2.86-1.19,2.87-2.76.03-4.31-.74-8.6-2.28-12.64-.62-1.62-2.6-2.26-4.06-1.31-.05.03-.09.06-.14.09-1.12.72-1.55,2.11-1.08,3.35,1.26,3.34,1.89,6.88,1.87,10.44,0,1.51,1.17,2.79,2.69,2.82Z"/>
        <path class="cls-7" d="M38.59,27.4s.03.05.05.08c.8,1.28,2.47,1.7,3.78.95,1.07-.62,2.18-1.18,3.32-1.65,1.49-.63,2.17-2.37,1.45-3.83,0-.02-.02-.03-.03-.05-.66-1.35-2.26-1.95-3.65-1.36-1.34.56-2.64,1.21-3.91,1.94-1.38.8-1.86,2.58-1.01,3.93Z"/>
        <path class="cls-7" d="M27.57,41.88c-.06-.02-.13-.05-.19-.07-1.5-.58-3.17.24-3.63,1.78-3.14,10.53-1.1,22.06,5.6,30.89,1,1.32,2.92,1.45,4.12.31.05-.05.1-.09.15-.14,1.01-.97,1.08-2.54.23-3.66-5.57-7.38-7.26-17-4.63-25.78.41-1.36-.32-2.8-1.65-3.31Z"/>
        <path class="cls-7" d="M38.87,80.15s-.04.09-.05.13c-.53,1.32.04,2.82,1.28,3.52.53.3,1.07.58,1.61.84,1.34.66,2.96.17,3.71-1.12,0-.02.02-.03.03-.05.82-1.41.27-3.22-1.19-3.94-.48-.23-.95-.48-1.42-.75-1.46-.82-3.33-.19-3.96,1.36Z"/>
        <path class="cls-7" d="M85.52,66.55c-.23-.04-.47-.07-.71-.1-1.02-.14-2.03.38-2.54,1.28,0,.01-.02.03-.02.04-.76,1.35-.18,3.05,1.25,3.65.14.06.28.12.42.18,1.21.54,2.64.13,3.3-1.02.05-.09.1-.17.14-.26.86-1.55-.1-3.48-1.85-3.77Z"/>
      </g>
      <path class="cls-12" d="M62.96,6.95c0-3.84-3.11-6.95-6.95-6.95s-6.95,3.11-6.95,6.95,3.11,6.95,6.95,6.95,6.95-3.11,6.95-6.95Z"/>
      <circle class="cls-12" cx="106.26" cy="50.17" r="7.94"/>
      <circle class="cls-12" cx="60.24" cy="102.9" r="7.93"/>
      <circle class="cls-12" cx="7.93" cy="56.62" r="7.93" transform="translate(-8.95 2) rotate(-9.19)"/>
      <line class="cls-3" x1="93.63" y1="18.36" x2="78.17" y2="34.99"/>
      <line class="cls-3" x1="87.55" y1="77.8" x2="75.64" y2="68.43"/>
      <line class="cls-3" x1="29.66" y1="86.16" x2="40.42" y2="70.01"/>
      <line class="cls-3" x1="25.98" y1="24.88" x2="40.42" y2="38.56"/>
      <line class="cls-2" x1="32.43" y1="54.45" x2="42.14" y2="55.44"/>
      <line class="cls-2" x1="56" y1="30.84" x2="56" y2="42.24"/>
      <line class="cls-2" x1="78.56" y1="51.9" x2="69.19" y2="53.67"/>
      <line class="cls-2" x1="57.01" y1="74.15" x2="57.01" y2="65.6"/>
      <line class="cls-4" x1="93.63" y1="18.36" x2="83.95" y2="28.77"/>
      <line class="cls-4" x1="87.55" y1="77.8" x2="80.18" y2="72.01"/>
      <line class="cls-4" x1="29.66" y1="86.16" x2="35.94" y2="76.74"/>
      <line class="cls-4" x1="25.98" y1="24.88" x2="35.04" y2="33.46"/>
      <line class="cls-6" x1="32.43" y1="54.45" x2="39.45" y2="55.16"/>
      <line class="cls-6" x1="56" y1="30.84" x2="56" y2="39"/>
      <line class="cls-6" x1="78.56" y1="51.9" x2="72.12" y2="53.12"/>
      <line class="cls-6" x1="57.01" y1="74.15" x2="57.01" y2="67.43"/>
      <circle class="cls-11" cx="25.98" cy="24.88" r="10.11"/>
      <circle class="cls-11" cx="87.55" cy="77.8" r="9.37"/>
      <circle class="cls-11" cx="93.63" cy="18.35" r="11.4" transform="translate(14.44 71.58) rotate(-45)"/>
      <circle class="cls-11" cx="28.26" cy="86.16" r="11.02" transform="translate(-18.95 8.75) rotate(-13.22)"/>
      <circle class="cls-11" cx="57.02" cy="75.14" r="7.71" transform="translate(-36.44 62.32) rotate(-45)"/>
      <path class="cls-11" d="M38.88,54.45c0-3.56-2.89-6.45-6.45-6.45s-6.45,2.89-6.45,6.45,2.89,6.45,6.45,6.45,6.45-2.89,6.45-6.45Z"/>
      <path class="cls-11" d="M85.01,50.95c0-3.56-2.89-6.45-6.45-6.45s-6.45,2.89-6.45,6.45,2.89,6.45,6.45,6.45,6.45-2.89,6.45-6.45Z"/>
      <circle class="cls-11" cx="56" cy="30.84" r="7.71" transform="translate(-4.09 52.68) rotate(-48.81)"/>
      <g>
        <circle class="cls-7" cx="93.63" cy="18.36" r="7.07"/>
        <circle class="cls-9" cx="88.79" cy="13.97" r="3.85"/>
        <circle class="cls-9" cx="98.14" cy="23.32" r="2.76"/>
      </g>
      <g>
        <path class="cls-7" d="M32.62,25.12c0-3.71-3.01-6.73-6.73-6.73s-6.73,3.01-6.73,6.73,3.01,6.73,6.73,6.73,6.73-3.01,6.73-6.73Z"/>
        <path class="cls-9" d="M24.95,20.95c0-2.02-1.64-3.66-3.66-3.66s-3.66,1.64-3.66,3.66,1.64,3.66,3.66,3.66,3.66-1.64,3.66-3.66Z"/>
        <path class="cls-9" d="M32.81,29.85c0-1.45-1.18-2.62-2.62-2.62s-2.62,1.18-2.62,2.62,1.18,2.62,2.62,2.62,2.62-1.18,2.62-2.62Z"/>
      </g>
      <g>
        <circle class="cls-7" cx="28.24" cy="86.41" r="6.73"/>
        <path class="cls-9" d="M27.3,82.23c0-2.02-1.64-3.66-3.66-3.66s-3.66,1.64-3.66,3.66,1.64,3.66,3.66,3.66,3.66-1.64,3.66-3.66Z"/>
        <path class="cls-9" d="M35.16,91.13c0-1.45-1.18-2.62-2.62-2.62s-2.62,1.18-2.62,2.62,1.18,2.62,2.62,2.62,2.62-1.18,2.62-2.62Z"/>
      </g>
      <g>
        <circle class="cls-7" cx="87.55" cy="78.24" r="6"/>
        <circle class="cls-9" cx="83.45" cy="74.52" r="3.27"/>
        <path class="cls-9" d="M93.72,82.45c0-1.29-1.05-2.34-2.34-2.34s-2.34,1.05-2.34,2.34,1.05,2.34,2.34,2.34,2.34-1.05,2.34-2.34Z"/>
      </g>
      <g>
        <path class="cls-7" d="M60.48,30.85c0-2.52-2.04-4.57-4.57-4.57s-4.57,2.04-4.57,4.57,2.04,4.57,4.57,4.57,4.57-2.04,4.57-4.57Z"/>
        <path class="cls-9" d="M55.27,28.02c0-1.37-1.11-2.49-2.49-2.49s-2.49,1.11-2.49,2.49,1.11,2.49,2.49,2.49,2.49-1.11,2.49-2.49Z"/>
        <circle class="cls-9" cx="58.83" cy="34.06" r="1.78"/>
      </g>
      <g>
        <path class="cls-7" d="M82.49,51.09c0-2.17-1.76-3.92-3.92-3.92s-3.92,1.76-3.92,3.92,1.76,3.92,3.92,3.92,3.92-1.76,3.92-3.92Z"/>
        <path class="cls-9" d="M78.02,48.66c0-1.18-.96-2.14-2.14-2.14s-2.14.96-2.14,2.14.96,2.14,2.14,2.14,2.14-.96,2.14-2.14Z"/>
        <path class="cls-9" d="M82.6,53.85c0-.85-.69-1.53-1.53-1.53s-1.53.69-1.53,1.53.69,1.53,1.53,1.53,1.53-.69,1.53-1.53Z"/>
      </g>
      <g>
        <path class="cls-8" d="M59.98,7.1c0-2.17-1.76-3.92-3.92-3.92s-3.92,1.76-3.92,3.92,1.76,3.92,3.92,3.92,3.92-1.76,3.92-3.92Z"/>
        <path class="cls-9" d="M55.51,4.66c0-1.18-.96-2.14-2.14-2.14s-2.14.96-2.14,2.14.96,2.14,2.14,2.14,2.14-.96,2.14-2.14Z"/>
        <path class="cls-9" d="M60.1,9.85c0-.85-.69-1.53-1.53-1.53s-1.53.69-1.53,1.53.69,1.53,1.53,1.53,1.53-.69,1.53-1.53Z"/>
      </g>
      <g>
        <path class="cls-8" d="M12.25,56.76c0-2.17-1.76-3.92-3.92-3.92s-3.92,1.76-3.92,3.92,1.76,3.92,3.92,3.92,3.92-1.76,3.92-3.92Z"/>
        <path class="cls-9" d="M7.78,54.33c0-1.18-.96-2.14-2.14-2.14s-2.14.96-2.14,2.14.96,2.14,2.14,2.14,2.14-.96,2.14-2.14Z"/>
        <circle class="cls-9" cx="10.83" cy="59.52" r="1.53"/>
      </g>
      <g>
        <path class="cls-8" d="M64.3,103.05c0-2.17-1.76-3.92-3.92-3.92s-3.92,1.76-3.92,3.92,1.76,3.92,3.92,3.92,3.92-1.76,3.92-3.92Z"/>
        <path class="cls-9" d="M59.83,100.61c0-1.18-.96-2.14-2.14-2.14s-2.14.96-2.14,2.14.96,2.14,2.14,2.14,2.14-.96,2.14-2.14Z"/>
        <path class="cls-9" d="M64.41,105.8c0-.85-.69-1.53-1.53-1.53s-1.53.69-1.53,1.53.69,1.53,1.53,1.53,1.53-.69,1.53-1.53Z"/>
      </g>
      <g>
        <path class="cls-8" d="M110.58,50.17c0-2.17-1.76-3.92-3.92-3.92s-3.92,1.76-3.92,3.92,1.76,3.92,3.92,3.92,3.92-1.76,3.92-3.92Z"/>
        <path class="cls-9" d="M106.1,47.73c0-1.18-.96-2.14-2.14-2.14s-2.14.96-2.14,2.14.96,2.14,2.14,2.14,2.14-.96,2.14-2.14Z"/>
        <path class="cls-9" d="M110.69,52.92c0-.85-.69-1.53-1.53-1.53s-1.53.69-1.53,1.53.69,1.53,1.53,1.53,1.53-.69,1.53-1.53Z"/>
      </g>
      <g>
        <path class="cls-7" d="M36.04,54.6c0-2.17-1.76-3.92-3.92-3.92s-3.92,1.76-3.92,3.92,1.76,3.92,3.92,3.92,3.92-1.76,3.92-3.92Z"/>
        <path class="cls-9" d="M31.57,52.16c0-1.18-.96-2.14-2.14-2.14s-2.14.96-2.14,2.14.96,2.14,2.14,2.14,2.14-.96,2.14-2.14Z"/>
        <circle class="cls-9" cx="34.62" cy="57.35" r="1.53"/>
      </g>
      <g>
        <path class="cls-7" d="M61.75,75.86c0-2.66-2.16-4.82-4.82-4.82s-4.82,2.16-4.82,4.82,2.16,4.82,4.82,4.82,4.82-2.16,4.82-4.82Z"/>
        <path class="cls-9" d="M56.26,72.86c0-1.45-1.18-2.63-2.63-2.63s-2.63,1.18-2.63,2.63,1.18,2.63,2.63,2.63,2.63-1.18,2.63-2.63Z"/>
        <path class="cls-9" d="M61.89,79.24c0-1.04-.84-1.88-1.88-1.88s-1.88.84-1.88,1.88.84,1.88,1.88,1.88,1.88-.84,1.88-1.88Z"/>
      </g>
    </g>
  </g>
</svg>