<?xml version="1.0" encoding="UTF-8"?>
<svg id="_Слой_2" data-name="Слой 2" xmlns="http://www.w3.org/2000/svg" viewBox="0 0 149.82 149.82">
  <defs>
    <style>
      .cls-1 {
        fill: #b52323;
      }
    </style>
  </defs>
  <g id="OBJECTS">
    <path class="cls-1" d="M78.27,0v18.35c28.05,1.14,52.08,25.14,53.2,53.2h18.35s0,6.73,0,6.73h-18.35s-.42,5.3-.42,5.3c-3.85,24.09-22.64,43.52-47.77,47.56-.85.14-4.57.2-4.87.63l-.13,18.06h-6.42l-.3-18.35c-28.09-1.17-52.07-25.12-53.2-53.2H0s0-6.73,0-6.73h18.35c1.13-28.04,25.12-52.12,53.2-53.2V0s6.73,0,6.73,0ZM24.77,71.55h14.68c.97-12.8,9.33-24.18,20.99-29.31,3.72-1.64,7.32-2.37,11.29-3.09-.46-4.79.67-9.57-.18-14.38-24.61,1.16-45.58,22.16-46.78,46.78ZM125.01,71.51c-1.08-22.24-18.49-41.85-40.31-45.99-1.04-.2-6.13-1.14-6.6-.47-.7,1,.23,12,0,14.09,2.41.6,4.88.9,7.27,1.61,11.24,3.31,20.59,12.88,23.83,23.88.65,2.19.98,4.6,1.22,6.87h14.59ZM71.55,45.86c-13.27,1.46-24.31,12.36-25.69,25.68l9.79.31-.31,6.42h-9.48c.12.87-.18,2.03.01,2.84.23.99,1.46,4.45,1.98,5.71,2.86,6.98,10.01,13.14,16.66,15.43,2.28.78,4.57,1.65,7.03,1.7v-9.33s.43-.46.46-.46h5.81s.46.43.46.46v9.33c13.22-1.57,24.24-12.38,25.68-25.68h-9.48v-6.73h9.48c-1.17-13.31-12.57-24.2-25.68-25.68v9.33s-.43.46-.46.46h-5.81s-.46-.43-.46-.46v-9.33ZM38.98,77.97h-14.22c1.09,24.91,22.21,45.96,47.09,47.09l-.31-14.68c-12.41-1.01-23.88-9.09-29-20.38-1.2-2.65-2.04-5.46-2.71-8.3-.18-.77-.27-3.55-.85-3.74ZM125.06,78.27h-14.68c0,.54.05,1.1-.04,1.64-2.2,13.96-12.14,25.75-26.19,29.46-1.96.52-3.94.76-5.91,1.18l.03,14.5c24.7-1.34,45.49-22.09,46.78-46.78Z"/>
  </g>
</svg>